<?xml version="1.0" standalone="no"?>
<!DOCTYPE svg PUBLIC "-//W3C//DTD SVG 20010904//EN"
 "http://www.w3.org/TR/2001/REC-SVG-20010904/DTD/svg10.dtd">
<svg version="1.0" xmlns="http://www.w3.org/2000/svg"
 width="96.000000pt" height="96.000000pt" viewBox="0 0 96.000000 96.000000"
 preserveAspectRatio="xMidYMid meet">

<g transform="translate(0.000000,96.000000) scale(0.100000,-0.100000)"
fill="#000000" stroke="none">
<path d="M365 863 c-196 -122 -316 -204 -322 -219 -3 -9 3 -23 16 -35 18 -17
21 -31 21 -102 0 -46 -4 -87 -8 -93 -16 -18 -34 -91 -28 -112 8 -25 44 -72 56
-72 5 0 18 15 29 34 23 37 27 86 9 104 -13 13 -25 192 -14 192 4 0 22 -11 40
-25 18 -14 36 -25 39 -25 3 0 7 24 9 52 4 62 14 70 130 95 120 25 344 3 396
-39 6 -6 12 -32 12 -59 0 -27 2 -49 5 -49 3 0 42 25 86 56 53 37 79 62 77 73
-6 30 -401 282 -441 280 -12 0 -62 -26 -112 -56z"/>
<path d="M320 612 l-65 -17 -3 -54 c-3 -47 -1 -53 14 -47 51 20 218 29 312 18
55 -6 107 -14 116 -18 15 -6 17 0 14 47 l-3 54 -65 17 c-39 10 -103 17 -160
17 -57 0 -121 -7 -160 -17z"/>
<path d="M136 474 c-4 -10 1 -25 11 -36 20 -22 43 -83 43 -116 0 -33 -36 -99
-65 -118 -20 -13 -25 -25 -25 -59 l0 -42 118 -5 c101 -4 127 -9 177 -32 72
-33 98 -33 170 0 50 23 76 28 178 32 l119 5 -5 136 c-4 120 -22 230 -40 248
-4 3 -21 -6 -40 -20 -32 -24 -35 -25 -87 -11 -29 8 -56 12 -58 9 -8 -8 20 -36
60 -61 48 -30 50 -64 9 -102 -16 -15 -38 -45 -49 -67 -50 -99 -113 -155 -174
-155 -32 0 -47 8 -87 45 -26 24 -60 68 -76 97 -15 29 -41 65 -56 80 -30 28
-38 69 -16 85 6 6 45 15 85 22 78 12 119 29 143 57 13 16 9 17 -66 10 -44 -3
-106 -12 -137 -20 -54 -12 -58 -12 -85 10 -34 28 -39 29 -47 8z"/>
</g>
</svg>
